<?xml version="1.0" encoding="utf-8"?>
<!-- Generator: Adobe Illustrator 23.0.2, SVG Export Plug-In . SVG Version: 6.00 Build 0)  -->
<svg version="1.1" id="Calque_1" xmlns:v="https://vecta.io/nano"
	 xmlns="http://www.w3.org/2000/svg" xmlns:xlink="http://www.w3.org/1999/xlink" x="0px" y="0px" viewBox="0 0 88.8 33.8"
	 style="enable-background:new 0 0 88.8 33.8;" xml:space="preserve">
<style type="text/css">
	.st0{fill:#231F20;}
	.st1{fill:#FFFFFF;}
	.st2{clip-path:url(#SVGID_2_);}
	.st3{clip-path:url(#SVGID_4_);fill:#131313;}
	.st4{clip-path:url(#SVGID_6_);fill:#131313;}
	.st5{fill:#FC3D3D;}
</style>
<g>
	<g>
		<rect y="23.9" class="st0" width="88.8" height="9.9"/>
	</g>
</g>
<g>
	<path class="st1" d="M5.2,28.1v3.2H3.9v-3.2H2.7v-1h3.7v1H5.2z"/>
	<path class="st1" d="M9.5,31.3v-1.6H8v1.6H6.8v-4.2H8v1.7h1.5v-1.7h1.2v4.2H9.5z"/>
	<path class="st1" d="M12.7,28v0.7h2v0.9h-2v0.7H15v0.9h-3.5v-4.2h3.4V28H12.7z"/>
	<path class="st1" d="M18.9,27.1c1,0,1.6,0.4,1.6,1.1c0,0.4-0.3,0.8-0.7,0.9c0.5,0.1,0.9,0.5,0.9,1.1c0,0.7-0.7,1.2-1.7,1.2h-2.2
		v-4.2L18.9,27.1L18.9,27.1z M18.1,28.7h0.7c0.2,0,0.4-0.1,0.4-0.4c0-0.2-0.1-0.4-0.4-0.4h-0.7V28.7z M18.1,30.3h0.7
		c0.3,0,0.5-0.1,0.5-0.4c0-0.2-0.2-0.4-0.5-0.4h-0.7V30.3z"/>
	<path class="st1" d="M22.4,28v0.7h2v0.9h-2v0.7h2.2v0.9h-3.5v-4.2h3.4V28H22.4z"/>
	<path class="st1" d="M28.8,27.5l-0.4,0.9c-0.4-0.2-1-0.4-1.4-0.4c-0.2,0-0.4,0.1-0.4,0.2c0,0.7,2.2,0.2,2.2,1.7
		c0,0.9-0.8,1.3-1.7,1.3c-0.7,0-1.5-0.2-2-0.7l0.4-0.9c0.4,0.4,1.2,0.7,1.6,0.7c0.3,0,0.4-0.1,0.4-0.3c0-0.7-2.2-0.2-2.2-1.7
		c0-0.8,0.7-1.3,1.7-1.3C27.6,27,28.3,27.2,28.8,27.5z"/>
	<path class="st1" d="M31.3,28.1v3.2h-1.2v-3.2h-1.2v-1h3.7v1H31.3z"/>
	<path class="st1" d="M37.9,31.3l-0.7-2.7l-0.7,2.7h-1.3l-1.4-4.2h1.3L36,30l0.7-2.9h1.2l0.7,2.9l0.7-2.9h1.3l-1.4,4.2H37.9z"/>
	<path class="st1" d="M41.7,30.6l-0.2,0.7h-1.3l1.8-4.2h1.3l1.7,4.2h-1.4l-0.2-0.7H41.7z M42.6,28.3L42,29.7h1L42.6,28.3z"/>
	<path class="st1" d="M47.3,31.3h-1.2V30l-1.5-2.9h1.2l0.9,1.7l0.9-1.7h1.2L47.3,30V31.3z"/>
	<path class="st1" d="M52.6,28.1v3.2h-1.3v-3.2h-1.2v-1h3.7v1H52.6z"/>
	<path class="st1" d="M58.3,29.2c0,1.2-0.9,2.2-2.3,2.2c-1.3,0-2.3-0.9-2.3-2.2s0.9-2.1,2.3-2.1C57.4,27.1,58.3,28,58.3,29.2z
		 M55,29.2c0,0.7,0.5,1.1,1,1.1c0.6,0,1-0.5,1-1.1c0-0.7-0.4-1.1-1-1.1C55.5,28.1,55,28.6,55,29.2z"/>
	<path class="st1" d="M63.6,27.5l-0.4,0.9c-0.4-0.2-1-0.4-1.4-0.4c-0.2,0-0.4,0.1-0.4,0.2c0,0.7,2.2,0.2,2.2,1.7
		c0,0.9-0.8,1.3-1.7,1.3c-0.7,0-1.5-0.2-2-0.7l0.4-0.9c0.4,0.4,1.2,0.7,1.6,0.7c0.3,0,0.4-0.1,0.4-0.3c0-0.7-2.2-0.2-2.2-1.7
		c0-0.8,0.7-1.3,1.7-1.3C62.5,27,63.2,27.3,63.6,27.5z"/>
	<path class="st1" d="M65.3,28.1v0.7h2v1h-2v0.7h2.2v0.9h-3.5v-4.2h3.4v0.9H65.3z"/>
	<path class="st1" d="M69.4,28.1v0.7h2v1h-2v0.7h2.2v0.9h-3.5v-4.2h3.4v0.9H69.4z"/>
	<path class="st1" d="M75.9,31.3h-1.2V30l-1.5-2.9h1.2l0.9,1.7l0.9-1.7h1.2L75.9,30C75.9,30,75.9,31.3,75.9,31.3z"/>
	<path class="st1" d="M82.1,29.2c0,1.2-0.9,2.2-2.3,2.2c-1.3,0-2.3-0.9-2.3-2.2s0.9-2.1,2.3-2.1C81.1,27.1,82.1,28,82.1,29.2z
		 M78.8,29.2c0,0.7,0.5,1.1,1,1.1s1-0.5,1-1.1c0-0.7-0.4-1.1-1-1.1C79.3,28.1,78.8,28.6,78.8,29.2z"/>
	<path class="st1" d="M86.4,29.6c0,1.1-0.8,1.8-2,1.8c-1.2,0-2-0.7-2-1.8v-2.5h1.2v2.5c0,0.5,0.4,0.8,0.7,0.8c0.4,0,0.7-0.3,0.7-0.8
		v-2.5h1.2L86.4,29.6L86.4,29.6z"/>
</g>
<g>
	<defs>
		<rect id="SVGID_1_" x="0.4" y="0.2" width="88.2" height="21.4"/>
	</defs>
	<clipPath id="SVGID_2_">
		<use xlink:href="#SVGID_1_"  style="overflow:visible;"/>
	</clipPath>
	<g class="st2">
		<defs>
			<rect id="SVGID_3_" x="0.4" y="0.2" width="88.2" height="21.4"/>
		</defs>
		<clipPath id="SVGID_4_">
			<use xlink:href="#SVGID_3_"  style="overflow:visible;"/>
		</clipPath>
		<path class="st3" d="M12.4,0.2c0.2,0,0.3,0.1,0.5,0.1c1.9,0.2,3.7,0.7,5.3,1.8c0.7,0.5,1.3,1,1.9,1.7c0.1,0.1,0.1,0.2,0,0.3
			c-0.9,0.8-1.8,1.7-2.8,2.5c-0.1,0.1-0.2,0.1-0.3,0c-0.7-0.8-1.6-1.4-2.5-1.8c-1.2-0.5-2.5-0.6-3.8-0.3C9.2,4.6,8,5.2,7,6.2
			C6,7.3,5.5,8.5,5.3,10c-0.1,0.8-0.1,1.6,0.1,2.5c0.4,2,1.5,3.5,3.4,4.4c1.4,0.7,3,0.8,4.5,0.5c1.4-0.3,2.6-1,3.5-2.1
			c0.2-0.2,0.2-0.2,0.4,0c0.9,0.8,1.8,1.6,2.7,2.5c0.2,0.1,0.1,0.2,0,0.4c-1.1,1.3-2.5,2.2-4.1,2.8c-1,0.4-2.1,0.6-3.1,0.7
			c-0.1,0-0.2,0-0.3,0h-1.7c-0.1,0-0.2,0-0.2,0c-1.8-0.2-3.5-0.6-5-1.6c-2.9-1.7-4.5-4.3-5-7.6c0-0.2-0.1-0.3-0.1-0.5v-2
			c0-0.1,0.1-0.2,0.1-0.4C0.6,8.3,1,7,1.6,5.9c0.8-1.5,1.8-2.7,3.2-3.7c1.7-1.2,3.6-1.8,5.6-2c0.2,0,0.3-0.1,0.5-0.1H12.4z"/>
		<path class="st3" d="M30,21.5c-1.3,0-2.6-0.2-3.8-0.7c-2.3-1-3.8-2.6-4.5-5c-0.4-1.2-0.4-2.4-0.3-3.6c0.2-1.8,1-3.4,2.3-4.7
			c0.9-0.9,2-1.5,3.2-1.9c1.9-0.6,3.8-0.7,5.7-0.2c2.6,0.7,4.5,2.1,5.5,4.6c0.5,1.2,0.7,2.5,0.6,3.8c-0.1,1.4-0.5,2.7-1.2,3.9
			c-0.8,1.3-1.9,2.2-3.3,2.9C32.9,21.2,31.5,21.5,30,21.5 M26,13.3c0,0.2,0,0.3,0,0.5c0.1,1.3,0.5,2.4,1.6,3.2
			c0.9,0.7,2,0.9,3.1,0.8c1.1-0.1,1.9-0.6,2.6-1.5c0.5-0.7,0.7-1.4,0.8-2.2c0.1-1,0-1.9-0.4-2.8c-0.7-1.5-2-2.2-3.6-2.2
			c-1.5,0-2.7,0.6-3.4,1.9C26.2,11.6,26,12.4,26,13.3"/>
	</g>
	<g class="st2">
		<defs>
			<rect id="SVGID_5_" x="0.4" y="0.2" width="88.2" height="21.4"/>
		</defs>
		<clipPath id="SVGID_6_">
			<use xlink:href="#SVGID_5_"  style="overflow:visible;"/>
		</clipPath>
		<path class="st4" d="M48.2,16.1c0.1-0.2,0.2-0.5,0.3-0.7c0.6-1.5,1.3-3.1,1.9-4.6c0.7-1.7,1.4-3.4,2.1-5.1
			c0.1-0.2,0.2-0.3,0.4-0.3c1.3,0,2.6,0,3.9,0c0.2,0,0.3,0,0.2,0.2c-0.5,1.2-1,2.4-1.5,3.6c-0.8,1.8-1.5,3.6-2.3,5.4
			c-0.6,1.5-1.3,3-1.9,4.5c-0.3,0.7-0.6,1.3-0.8,2c0,0.1-0.2,0.2-0.2,0.2c-1.5,0-2.9,0-4.4,0c-0.1,0-0.2-0.1-0.2-0.2
			c-0.6-1.4-1.2-2.8-1.7-4.2c-0.8-1.9-1.6-3.8-2.4-5.6c-0.8-1.9-1.6-3.8-2.4-5.7c-0.1-0.2,0-0.2,0.1-0.2c1.4,0,2.9,0,4.3,0
			c0.1,0,0.2,0.1,0.3,0.2c0.6,1.5,1.2,3.1,1.9,4.6c0.6,1.6,1.3,3.1,1.9,4.7c0.1,0.4,0.3,0.7,0.4,1.1C48.1,16,48.2,16,48.2,16.1
			C48.2,16.1,48.2,16.1,48.2,16.1"/>
		<path class="st4" d="M83.1,7.4c0.1-0.1,0.1-0.1,0.2-0.1c0.7-0.9,1.6-1.4,2.7-1.7c0.8-0.2,1.6-0.3,2.4-0.4c0.2,0,0.2,0.1,0.2,0.2
			c0,1.3,0,2.5,0,3.8c0,0.2-0.1,0.2-0.2,0.2c-0.5,0-1,0-1.6,0c-1.7,0.2-3,1.2-3.3,3c-0.1,0.5-0.1,1-0.1,1.5c0,2.4,0,4.8,0,7.1
			c0,0.2,0,0.2-0.2,0.2c-1.4,0-2.8,0-4.2,0c-0.1,0-0.2,0-0.2-0.2c0-4.2,0-8.3,0-12.5c0-1,0-2,0-2.9c0-0.2,0.1-0.3,0.3-0.3
			c1.3,0,2.6,0,3.9,0c0.3,0,0.3,0,0.3,0.3c0,0.5,0,1,0,1.5C83,7.2,83,7.3,83.1,7.4"/>
	</g>
</g>
<g>
	<path class="st5" d="M73,8.8c-3,2.6-6,5.3-9,7.9c1.1,0.8,2.2,1.1,3.4,0.7c2.1-0.7,3.6-2.1,4.1-4.4c0.1-0.4,0.2-0.6,0.7-0.5
		c0.8,0.1,1.7,0.2,2.5,0.3c0.3,0,0.5,0.2,0.4,0.6c-0.2,0.9-0.3,1.8-0.7,2.6c-1.7,3-4.2,5.1-7.6,5.6c-3,0.5-5.4-0.7-7.3-3
		c-3-3.7-2.2-8.8,1.7-11.8C65.1,3.6,70.2,4.5,73,8.8z M62.2,14.8c2-1.7,3.9-3.5,5.9-5.2c-1.3-1.4-3.6-1.4-5.2,0
		C61.3,11,61,13.2,62.2,14.8z"/>
</g>
</svg>
